Coordinates
version=1
nRows=43
nColumns=12
inDegrees=yes

Units are S.I. units (second, meters, Newtons, ...)
Angles are in degrees

endheader
time	SC_y	SC_z	SC_x	AC_y	AC_z	AC_x	GH_y	GH_z	GH_yy	EL_x	PS_y
       0.0              -56.14          39.39         0.1004          52.33          5.245          19.57          75.75         -15.87         -139.0          126.5          116.3
   0.04515              -56.14          39.38         0.1013          52.32          5.244          19.57          75.72         -15.86         -139.0          126.5          116.3
    0.0903              -56.14          39.38         0.1023          52.32          5.242          19.56          75.68         -15.85         -139.0          126.5          116.3
    0.1354              -56.13          39.37         0.1033          52.32          5.241          19.55          75.63         -15.83         -138.9          126.5          116.3
    0.1806              -56.13          39.36         0.1044          52.32          5.239          19.55          75.59         -15.81         -138.9          126.5          116.3
    0.2257              -56.12          39.36         0.1056          52.31          5.238          19.54          75.54          -15.8         -138.8          126.5          116.3
    0.2709              -56.12          39.35         0.1069          52.31          5.236          19.53          75.49         -15.78         -138.8          126.5          116.3
     0.316              -56.11          39.34         0.1083          52.31          5.234          19.53          75.44         -15.76         -138.8          126.5          116.3
    0.3612               -56.1          39.34         0.1097          52.31          5.232          19.52          75.38         -15.74         -138.7          126.4          116.3
    0.4063               -56.1          39.33         0.1113           52.3          5.229          19.51          75.32         -15.72         -138.7          126.4          116.3
    0.4515              -56.09          39.32          0.113           52.3          5.227           19.5          75.25         -15.69         -138.6          126.4          116.3
    0.4966              -56.08          39.31         0.1148           52.3          5.224          19.49          75.18         -15.67         -138.6          126.4          116.3
    0.5418              -56.07           39.3         0.1167          52.29          5.222          19.48           75.1         -15.64         -138.5          126.4          116.3
    0.5869              -56.06          39.29         0.1189          52.29          5.219          19.46          75.02         -15.61         -138.4          126.4          116.3
    0.6321              -56.05          39.28         0.1211          52.28          5.215          19.45          74.92         -15.58         -138.4          126.3          116.3
    0.6772              -56.04          39.26         0.1236          52.28          5.212          19.44          74.83         -15.54         -138.3          126.3          116.3
    0.7224              -56.03          39.25         0.1263          52.27          5.208          19.42          74.72          -15.5         -138.2          126.3          116.3
    0.7675              -56.02          39.23         0.1292          52.27          5.204           19.4           74.6         -15.46         -138.1          126.3          116.3
    0.8127               -56.0          39.22         0.1324          52.26          5.199          19.39          74.47         -15.42         -138.0          126.2          116.3
    0.8578              -55.99           39.2         0.1359          52.25          5.194          19.37          74.33         -15.37         -137.9          126.2          116.4
     0.903              -55.97          39.18         0.1398          52.24          5.189          19.34          74.18         -15.31         -137.8          126.2          116.4
    0.9481              -55.95          39.16          0.144          52.23          5.182          19.32          74.01         -15.25         -137.7          126.1          116.4
    0.9933              -55.93          39.13         0.1487          52.23          5.176          19.29          73.82         -15.19         -137.5          126.1          116.4
     1.038              -55.91           39.1         0.1538          52.21          5.168          19.26          73.62         -15.11         -137.4          126.0          116.4
     1.084              -55.89          39.07         0.1596           52.2           5.16          19.23          73.39         -15.03         -137.2          126.0          116.4
     1.129              -55.86          39.04          0.166          52.19          5.151          19.19          73.13         -14.94         -137.0          125.9          116.4
     1.174              -55.83           39.0         0.1732          52.17           5.14          19.15          72.84         -14.84         -136.8          125.8          116.4
     1.219              -55.79          38.96         0.1813          52.16          5.129           19.1          72.52         -14.72         -136.5          125.7          116.4
     1.264              -55.75          38.91         0.1905          52.14          5.116          19.05          72.16         -14.59         -136.3          125.7          116.4
     1.309              -55.71          38.86         0.2008          52.12          5.101          18.99          71.74         -14.45         -135.9          125.6          116.5
     1.354              -55.66          38.79         0.2127          52.09          5.084          18.92          71.27         -14.28         -135.6          125.4          116.5
       1.4               -55.6          38.72         0.2263          52.06          5.064          18.84          70.73         -14.09         -135.2          125.3          116.5
     1.445              -55.53          38.64          0.242          52.03          5.042          18.75           70.1         -13.86         -134.7          125.2          116.5
      1.49              -55.45          38.54         0.2602          51.99          5.015          18.65          69.37          -13.6         -134.1          125.0          116.5
     1.535              -55.36          38.43         0.2816          51.95          4.985          18.53          68.52          -13.3         -133.5          124.8          116.6
      1.58              -55.25           38.3         0.3068           51.9          4.948          18.38          67.51         -12.94         -132.7          124.5          116.6
     1.625              -55.12          38.14         0.3367          51.84          4.905          18.21          66.32         -12.52         -131.8          124.2          116.7
     1.671              -54.96          37.95         0.3725          51.76          4.854           18.0          64.89         -12.01         -130.7          123.9          116.7
     1.716              -54.77          37.72         0.4159          51.67          4.791          17.75          63.16          -11.4         -129.4          123.4          116.8
     1.761              -54.54          37.44         0.4689          51.56          4.715          17.45          61.04         -10.64         -127.7          122.9          116.9
     1.806              -54.26          37.09         0.5343          51.43          4.621          17.07          58.43         -9.717         -125.7          122.3          117.0
     1.851              -53.91          36.66         0.6158          51.26          4.504           16.6          55.18          -8.56         -123.3          121.5          117.1
     1.896              -53.46          36.12         0.7185          51.04          4.356          16.01          51.08         -7.103         -120.1          120.5          117.3
